<svg width="58" height="58" viewBox="0 0 58 58" fill="none" xmlns="http://www.w3.org/2000/svg">
<g id="Group 1484">
<rect id="Link" x="0.5" y="0.5" width="57" height="57" rx="28.5" fill="#F6F6F6"/>
<g id="Group 1480">
<path id="Vector" d="M37.9908 11H20.0092C15.0414 11 11 15.2209 11 20.4093V37.5907C11 42.7791 15.0414 47 20.0092 47H37.9908C42.9586 47 47 42.7791 47 37.5907V20.4093C47 15.2209 42.9586 11 37.9908 11ZM14.1782 20.4093C14.1782 17.0517 16.7944 14.3193 20.0092 14.3193H37.9908C41.2056 14.3193 43.8219 17.0517 43.8219 20.4093V37.5907C43.8219 40.9482 41.2056 43.6807 37.9908 43.6807H20.0092C16.7944 43.6807 14.1782 40.9482 14.1782 37.5907V20.4093Z" fill="#030509"/>
<path id="Vector_2" d="M28.9982 37.7506C33.6178 37.7506 37.3783 33.8253 37.3783 28.9984C37.3783 24.1714 33.6199 20.2461 28.9982 20.2461C24.3766 20.2461 20.6182 24.1714 20.6182 28.9984C20.6182 33.8253 24.3766 37.7506 28.9982 37.7506ZM28.9982 23.5675C31.8669 23.5675 34.2001 26.0044 34.2001 29.0005C34.2001 31.9966 31.8669 34.4335 28.9982 34.4335C26.1295 34.4335 23.7963 31.9966 23.7963 29.0005C23.7963 26.0044 26.1295 23.5675 28.9982 23.5675Z" fill="#030509"/>
<path id="Vector_3" d="M38.1544 21.6578C39.3983 21.6578 40.4123 20.601 40.4123 19.2996C40.4123 17.9982 39.4004 16.9414 38.1544 16.9414C36.9084 16.9414 35.8965 17.9982 35.8965 19.2996C35.8965 20.601 36.9084 21.6578 38.1544 21.6578Z" fill="#030509"/>
</g>
</g>
</svg>
