<svg width="38" height="38" viewBox="0 0 38 38" fill="none" xmlns="http://www.w3.org/2000/svg">
<g id="Group 1484">
<rect id="Link" width="38" height="38" rx="19" fill="#F6F6F6"/>
<g id="Group 1480">
<path id="Vector" d="M24.9939 7H13.0061C9.69427 7 7 9.81394 7 13.2729V24.7271C7 28.1861 9.69427 31 13.0061 31H24.9939C28.3057 31 31 28.1861 31 24.7271V13.2729C31 9.81394 28.3057 7 24.9939 7ZM9.11877 13.2729C9.11877 11.0345 10.8629 9.21286 13.0061 9.21286H24.9939C27.1371 9.21286 28.8812 11.0345 28.8812 13.2729V24.7271C28.8812 26.9655 27.1371 28.7871 24.9939 28.7871H13.0061C10.8629 28.7871 9.11877 26.9655 9.11877 24.7271V13.2729Z" fill="#030509"/>
<path id="Vector_2" d="M18.9988 24.8337C22.0786 24.8337 24.5855 22.2169 24.5855 18.9989C24.5855 15.7809 22.0799 13.1641 18.9988 13.1641C15.9177 13.1641 13.4121 15.7809 13.4121 18.9989C13.4121 22.2169 15.9177 24.8337 18.9988 24.8337ZM18.9988 15.3783C20.9113 15.3783 22.4667 17.0029 22.4667 19.0003C22.4667 20.9977 20.9113 22.6223 18.9988 22.6223C17.0864 22.6223 15.5309 20.9977 15.5309 19.0003C15.5309 17.0029 17.0864 15.3783 18.9988 15.3783Z" fill="#030509"/>
<path id="Vector_3" d="M25.1029 14.1061C25.9322 14.1061 26.6082 13.4016 26.6082 12.534C26.6082 11.6665 25.9336 10.9619 25.1029 10.9619C24.2722 10.9619 23.5977 11.6665 23.5977 12.534C23.5977 13.4016 24.2722 14.1061 25.1029 14.1061Z" fill="#030509"/>
</g>
</g>
</svg>
