<svg width="19" height="24" viewBox="0 0 19 24" fill="none" xmlns="http://www.w3.org/2000/svg">
<path id="Vector" d="M9.5 0C6.98131 0.0028586 4.56659 1.01523 2.78561 2.81501C1.00463 4.61478 0.00282875 7.05498 0 9.60025C0 13.5064 2.80606 16.75 5.77838 20.1833C6.71888 21.2706 7.69263 22.395 8.5595 23.5326C8.67043 23.678 8.81291 23.7958 8.97596 23.8768C9.13902 23.9579 9.3183 24 9.5 24C9.6817 24 9.86098 23.9579 10.024 23.8768C10.1871 23.7958 10.3296 23.678 10.4405 23.5326C11.3074 22.395 12.2811 21.2706 13.2216 20.1833C16.1939 16.75 19 13.5064 19 9.60025C18.9972 7.05498 17.9954 4.61478 16.2144 2.81501C14.4334 1.01523 12.0187 0.0028586 9.5 0ZM9.5 13.2003C8.7954 13.2003 8.10663 12.9892 7.52078 12.5936C6.93493 12.198 6.47832 11.6358 6.20868 10.9779C5.93904 10.3201 5.86849 9.59626 6.00595 8.89791C6.14341 8.19956 6.48271 7.55808 6.98093 7.0546C7.47916 6.55112 8.11393 6.20824 8.80499 6.06933C9.49605 5.93042 10.2123 6.00171 10.8633 6.2742C11.5143 6.54668 12.0707 7.00811 12.4621 7.60014C12.8536 8.19218 13.0625 8.88822 13.0625 9.60025C13.0625 10.5551 12.6872 11.4708 12.0191 12.1459C11.351 12.821 10.4448 13.2003 9.5 13.2003Z" fill="white"/>
</svg>
