<svg width="24" height="24" viewBox="0 0 24 24" fill="none" xmlns="http://www.w3.org/2000/svg">
<g id="Telephone" clip-path="url(#clip0_158_1273)">
<g id="Clip path group">
<mask id="mask0_158_1273" style="mask-type:luminance" maskUnits="userSpaceOnUse" x="0" y="0" width="24" height="24">
<g id="a">
<path id="Vector" d="M24 0H0V24H24V0Z" fill="white"/>
</g>
</mask>
<g mask="url(#mask0_158_1273)">
<g id="Group">
<path id="Vector_2" d="M23.198 18.9571C23.3131 19.3028 23.1028 19.887 22.7285 20.2613L20.3548 22.635C19.7934 23.1968 18.7389 23.4132 18.0016 23.118L16.9048 22.6797C10.7611 20.2219 3.7779 13.239 1.32052 7.09505L0.881772 5.99855C0.587021 5.2613 0.803397 4.2068 1.36477 3.64542L3.73852 1.27167C4.11277 0.89705 4.6974 0.686675 5.04277 0.802175C6.94327 1.43555 9.00052 3.49242 9.6339 5.39292C9.74902 5.7383 9.53865 6.32292 9.1644 6.69718L7.80802 8.05355C7.4334 8.4278 7.32202 9.1163 7.55865 9.58955L7.91227 10.2972C8.97765 12.4279 11.5723 15.0226 13.703 16.0879L14.4103 16.4416C14.8839 16.6782 15.572 16.5664 15.9463 16.1922L17.303 14.8358C17.6773 14.4615 18.2615 14.2512 18.6073 14.3663C20.5074 14.9997 22.5646 17.0569 23.198 18.9571Z" fill="white"/>
</g>
</g>
</g>
</g>
<defs>
<clipPath id="clip0_158_1273">
<rect width="24" height="24" fill="white"/>
</clipPath>
</defs>
</svg>
