<svg width="58" height="58" viewBox="0 0 58 58" fill="none" xmlns="http://www.w3.org/2000/svg">
<g id="Group 1511">
<path id="Vector" d="M7.4458 27.4104C7.52847 27.3604 7.61119 27.313 7.69179 27.268C9.0931 26.4838 10.513 25.7495 11.9309 25.0153C12.0073 25.0153 12.1355 24.9079 12.2078 24.8729C12.3173 24.8155 12.4269 24.7605 12.5364 24.7031C12.7473 24.5932 12.9581 24.4858 13.1668 24.3759C13.5885 24.1586 14.008 23.9414 14.4296 23.7241C15.2708 23.2895 16.112 22.855 16.9532 22.4179C18.6356 21.5488 20.3201 20.6771 22.0025 19.808C23.6849 18.9388 25.3694 18.0672 27.0518 17.1981C28.7342 16.329 30.4187 15.4574 32.1011 14.5882C33.7835 13.7191 35.468 12.8475 37.1504 11.9784C37.5245 11.7836 37.9296 11.4938 38.3305 11.4089C38.6674 11.3365 38.996 11.1967 39.335 11.1192C39.9778 10.9719 40.6867 10.9119 41.3026 11.2341C41.5155 11.3465 41.7118 11.5038 41.8751 11.7011C42.6564 12.6352 42.5468 14.1687 42.3815 15.4824C41.2303 24.6382 40.079 33.7965 38.9257 42.9523C38.7687 44.2085 38.5537 45.5872 37.7332 46.3814C37.0387 47.0532 36.0508 47.1281 35.193 46.8434C34.3353 46.5561 33.5789 45.9543 32.8369 45.3624C29.7593 42.8998 26.6798 40.4373 23.6023 37.9747C22.8706 37.3903 22.0563 36.6261 22.0646 35.5647C22.0687 34.9253 22.3849 34.3559 22.7073 33.8489C25.3818 29.6331 29.2406 26.7361 32.1114 22.7151C32.5165 22.1482 32.8348 21.1242 32.2788 20.797C31.9481 20.6022 31.5678 20.8669 31.2661 21.1192C27.4713 24.3035 23.6787 27.4903 19.884 30.6746C18.646 31.7135 17.348 32.7825 15.8558 33.0372C14.5206 33.267 13.1772 32.8174 11.8854 32.3579C10.8024 31.9733 9.72139 31.5787 8.64457 31.1716C8.07206 30.9568 7.48094 30.7245 7.03864 30.2375C6.59634 29.7505 6.34215 28.9314 6.60877 28.282C6.77619 27.8749 7.10069 27.6177 7.44171 27.4079L7.4458 27.4104Z" fill="#030509"/>
</g>
</svg>
