<svg width="38" height="38" viewBox="0 0 38 38" fill="none" xmlns="http://www.w3.org/2000/svg">
<g id="Group 1526">
<rect id="Link" width="38" height="38" rx="19" fill="#F6F6F6"/>
<path id="Vector" d="M4.63053 17.9403C4.68565 17.907 4.74079 17.8753 4.79453 17.8453C5.72874 17.3225 6.67535 16.833 7.62058 16.3435C7.67156 16.3435 7.75697 16.2719 7.80519 16.2486C7.87822 16.2103 7.95126 16.1737 8.02429 16.1354C8.16484 16.0621 8.30539 15.9905 8.44455 15.9173C8.72564 15.7724 9.00534 15.6276 9.28642 15.4827C9.84723 15.193 10.408 14.9033 10.9688 14.6119C12.0904 14.0325 13.2134 13.4514 14.335 12.872C15.4566 12.2926 16.5796 11.7115 17.7012 11.1321C18.8228 10.5527 19.9458 9.97158 21.0674 9.39216C22.189 8.81274 23.312 8.23166 24.4336 7.65225C24.683 7.52238 24.953 7.32923 25.2203 7.27262C25.4449 7.22434 25.664 7.13111 25.89 7.0795C26.3185 6.98126 26.7911 6.9413 27.2017 7.15608C27.3437 7.23101 27.4746 7.33588 27.5834 7.46741C28.1043 8.09012 28.0312 9.11245 27.921 9.98824C27.1535 16.0921 26.386 22.1977 25.6172 28.3015C25.5124 29.139 25.3691 30.0581 24.8221 30.5876C24.3591 31.0355 23.7005 31.0854 23.1287 30.8956C22.5569 30.7041 22.0526 30.3028 21.5579 29.9082C19.5062 28.2666 17.4532 26.6249 15.4015 24.9832C14.9137 24.5936 14.3709 24.0841 14.3764 23.3765C14.3791 22.9502 14.5899 22.5706 14.8049 22.2326C16.5879 19.4221 19.1604 17.4907 21.0743 14.8101C21.3443 14.4321 21.5565 13.7495 21.1859 13.5314C20.9654 13.4015 20.7119 13.5779 20.5107 13.7461C17.9809 15.869 15.4525 17.9935 12.9227 20.1164C12.0973 20.809 11.232 21.5216 10.2372 21.6915C9.34707 21.8446 8.45145 21.545 7.59027 21.2386C6.86826 20.9822 6.1476 20.7191 5.42972 20.4477C5.04804 20.3045 4.65396 20.1497 4.35909 19.825C4.06423 19.5003 3.89477 18.9542 4.07252 18.5213C4.18412 18.25 4.40046 18.0785 4.62781 17.9386L4.63053 17.9403Z" fill="#030509"/>
</g>
</svg>
