<svg width="58" height="57" viewBox="0 0 58 57" fill="none" xmlns="http://www.w3.org/2000/svg">
<g id="Group 1483">
<g id="Group 1486">
<g id="Group 1563">
<path id="Path" d="M42.9364 14.7065C41.9931 13.8351 38.1811 11.0649 29.6902 11.0273C29.6902 11.0273 19.6772 10.4228 14.7961 14.9049C12.0789 17.6255 11.1231 21.6063 11.0223 26.5417C10.9215 31.4772 10.791 40.7264 19.6972 43.2343H19.7057L19.7 47.0612C19.7 47.0612 19.6431 48.6105 20.6621 48.9265C21.8948 49.3097 22.6182 48.1321 23.7951 46.8628C24.4411 46.1659 25.3331 45.1424 26.0053 44.36C32.0963 44.8732 36.781 43.7002 37.313 43.5269C38.5428 43.1277 45.502 42.2347 46.6339 32.9866C47.8022 23.4539 46.0688 17.4242 42.9364 14.7065ZM43.9686 32.3029C43.0133 40.025 37.3688 40.5103 36.3281 40.8445C35.8855 40.987 31.7711 42.0117 26.5971 41.6736C26.5971 41.6736 22.7419 46.3296 21.5377 47.5402C21.3497 47.7295 21.1287 47.8059 20.9811 47.7683C20.7738 47.7175 20.7168 47.4718 20.7191 47.1125C20.7225 46.5993 20.7521 40.7532 20.7521 40.7532C20.7476 40.7532 20.7521 40.7532 20.7521 40.7532C13.2182 38.6593 13.6574 30.7872 13.7428 26.6649C13.8283 22.5427 14.6018 19.1657 16.8997 16.8945C21.0284 13.1508 29.5336 13.7102 29.5336 13.7102C36.716 13.7416 40.1577 15.9068 40.9558 16.6321C43.6057 18.9034 44.9557 24.3383 43.9686 32.3006V32.3029Z" fill="#141414"/>
<path id="Path_2" fill-rule="evenodd" clip-rule="evenodd" d="M29.8361 23.3299C29.8499 23.0648 30.0758 22.8611 30.3407 22.8749C31.3316 22.9267 32.156 23.2269 32.7431 23.8347C33.328 24.4401 33.6147 25.2858 33.6651 26.3016C33.6782 26.5667 33.4741 26.7923 33.2093 26.8055C32.9444 26.8186 32.719 26.6144 32.7059 26.3492C32.6628 25.4797 32.4245 24.8878 32.0528 24.5031C31.6833 24.1207 31.1195 23.8783 30.2906 23.8351C30.0258 23.8212 29.8223 23.5951 29.8361 23.3299Z" fill="#141414"/>
<path id="Path_3" fill-rule="evenodd" clip-rule="evenodd" d="M29.1087 20.7402C29.1281 20.4754 29.3582 20.2765 29.6227 20.2959C31.6392 20.4436 33.2623 21.1334 34.4446 22.4253L34.4448 22.4255C35.6143 23.7047 36.1701 25.2961 36.1297 27.1627C36.124 27.4281 35.9044 27.6386 35.6392 27.6329C35.3741 27.6271 35.1638 27.4073 35.1696 27.1419C35.2051 25.4958 34.7216 24.1523 33.7363 23.0746C32.754 22.0013 31.3809 21.3887 29.5526 21.2547C29.2881 21.2353 29.0894 21.005 29.1087 20.7402Z" fill="#141414"/>
<path id="Path_4" fill-rule="evenodd" clip-rule="evenodd" d="M28.2603 18.2781C28.2621 18.0127 28.4786 17.7989 28.7438 17.8008C31.5306 17.8202 33.8861 18.7489 35.7774 20.5946C37.6844 22.4557 38.6275 24.9893 38.6514 28.1361C38.6535 28.4016 38.4401 28.6184 38.1749 28.6205C37.9097 28.6225 37.6931 28.4089 37.6911 28.1434C37.6687 25.1947 36.7924 22.9278 35.107 21.283C33.4057 19.6228 31.2935 18.78 28.7371 18.7622C28.4719 18.7603 28.2584 18.5436 28.2603 18.2781Z" fill="#141414"/>
<path id="Path_5" d="M30.4114 32.7639C30.4114 32.7639 31.0865 32.821 31.4499 32.3727L32.1585 31.4803C32.5003 31.0378 33.3251 30.7555 34.1328 31.206C34.7381 31.5516 35.3258 31.9273 35.8936 32.3317C36.4296 32.7263 37.5273 33.6432 37.5307 33.6432C38.0536 34.0852 38.1744 34.7341 37.8183 35.4184C37.8183 35.4224 37.8155 35.4292 37.8155 35.4326C37.4234 36.1131 36.9256 36.7268 36.3407 37.2506C36.3339 37.254 36.3339 37.2574 36.3276 37.2608C35.8195 37.6858 35.3203 37.9274 34.8301 37.9856C34.7579 37.9982 34.6845 38.0028 34.6113 37.9993C34.3951 38.0014 34.18 37.9683 33.9745 37.9012L33.9585 37.8778C33.2032 37.6646 31.942 37.1308 29.8418 35.9709C28.6264 35.3077 27.4694 34.5425 26.383 33.6837C25.8385 33.2535 25.3191 32.7924 24.8274 32.3026L24.7749 32.2501L24.7225 32.1977L24.6701 32.1452C24.6525 32.1281 24.6354 32.1104 24.6177 32.0928C24.1285 31.6005 23.6678 31.0805 23.2381 30.5354C22.3803 29.448 21.616 28.2899 20.9533 27.0735C19.7947 24.9705 19.2615 23.7091 19.0485 22.9518L19.0251 22.9359C18.9583 22.7301 18.9254 22.5147 18.9277 22.2983C18.9237 22.2251 18.9281 22.1516 18.9408 22.0794C19.0019 21.5893 19.2436 21.0892 19.6659 20.5791C19.6694 20.5728 19.6728 20.5728 19.6762 20.566C20.1993 19.9805 20.8123 19.4823 21.4922 19.0902C21.4956 19.0902 21.5024 19.0868 21.5064 19.0868C22.19 18.7304 22.8382 18.8513 23.2791 19.3719C23.2825 19.3753 24.1968 20.4742 24.5892 21.0107C24.9933 21.5797 25.3685 22.1685 25.7137 22.7751C26.1637 23.5831 25.8817 24.4105 25.4397 24.7515L24.5482 25.4609C24.0982 25.8247 24.1575 26.5004 24.1575 26.5004C24.1575 26.5004 25.4779 31.5031 30.4114 32.7639Z" fill="#141414"/>
</g>
</g>
</g>
</svg>
