<svg width="38" height="38" viewBox="0 0 38 38" fill="none" xmlns="http://www.w3.org/2000/svg">
<g id="Group 1482">
<rect id="Link" width="38" height="38" rx="19" fill="#F6F6F6"/>
<g id="Group">
<path id="Vector" d="M22.592 24.5707C17.8766 24.5707 14.0404 20.6032 14.0391 15.7282C14.0404 14.4924 15.0136 13.4875 16.2063 13.4875C16.329 13.4875 16.4503 13.4982 16.5665 13.5196C16.822 13.5636 17.0647 13.653 17.288 13.7878C17.3203 13.8078 17.3422 13.8399 17.3474 13.8772L17.8457 17.1241C17.8521 17.1615 17.8405 17.2002 17.816 17.2282C17.541 17.5431 17.1899 17.77 16.7988 17.8834L16.6104 17.9382L16.6813 18.1263C17.3242 19.8185 18.6331 21.1704 20.2711 21.8376L20.4531 21.9124L20.506 21.7175C20.6157 21.3132 20.8352 20.9502 21.1398 20.6659C21.1617 20.6446 21.1914 20.6339 21.2211 20.6339C21.2276 20.6339 21.234 20.6339 21.2418 20.6352L24.3823 21.1503C24.4197 21.157 24.4507 21.1784 24.4701 21.2117C24.5992 21.4426 24.6857 21.6948 24.7295 21.9591C24.7502 22.0765 24.7592 22.2006 24.7592 22.3301C24.7592 23.5645 23.7872 24.5694 22.592 24.5707Z" fill="#030509"/>
<path id="Vector_2" d="M30.9548 17.9297C30.7005 14.9591 29.3839 12.2033 27.2476 10.1708C25.0984 8.12634 22.3103 7 19.3943 7C12.9945 7 7.78741 12.3835 7.78741 19C7.78741 21.2206 8.37987 23.3839 9.50159 25.2682L7 30.9933L15.0095 30.1112C16.4023 30.7011 17.8763 31 19.393 31C19.7919 31 20.2011 30.9786 20.6116 30.9346C20.973 30.8946 21.3383 30.8358 21.6972 30.7611C27.0566 29.6415 30.969 24.7237 31 19.0641V19C31 18.6397 30.9845 18.2794 30.9535 17.931L30.9548 17.9297ZM15.318 27.5983L10.8866 28.0867L12.2097 25.056L11.9451 24.6891C11.9257 24.6624 11.9064 24.6357 11.8844 24.605C10.7356 22.9649 10.1289 21.0271 10.1289 19.0013C10.1289 13.7193 14.2853 9.42216 19.3943 9.42216C24.1807 9.42216 28.2377 13.2829 28.6288 18.2113C28.6494 18.4755 28.6611 18.7411 28.6611 19.0027C28.6611 19.0774 28.6598 19.1508 28.6585 19.2295C28.5604 23.6481 25.5747 27.4008 21.3977 28.3563C21.0788 28.4297 20.7523 28.4858 20.427 28.5218C20.0888 28.5618 19.7416 28.5819 19.3969 28.5819C18.1694 28.5819 16.9767 28.3363 15.8498 27.8505C15.7246 27.7985 15.6019 27.7424 15.4871 27.685L15.3193 27.601L15.318 27.5983Z" fill="#030509"/>
</g>
</g>
</svg>
