<svg width="58" height="58" viewBox="0 0 58 58" fill="none" xmlns="http://www.w3.org/2000/svg">
<g id="Group 1482">
<rect id="Link" x="0.5" y="0.5" width="57" height="57" rx="28.5" fill="#F6F6F6"/>
<g id="Group">
<path id="Vector" d="M34.3879 37.3572C27.315 37.3572 21.5605 31.4059 21.5586 24.0934C21.5605 22.2397 23.0204 20.7324 24.8095 20.7324C24.9934 20.7324 25.1754 20.7484 25.3497 20.7805C25.7331 20.8465 26.0971 20.9806 26.432 21.1828C26.4805 21.2128 26.5134 21.2609 26.5211 21.3169L27.2685 26.1873C27.2782 26.2433 27.2607 26.3014 27.224 26.3434C26.8115 26.8158 26.2849 27.1561 25.6982 27.3263L25.4155 27.4083L25.522 27.6906C26.4862 30.2288 28.4496 32.2566 30.9066 33.2575L31.1796 33.3696L31.259 33.0774C31.4236 32.4708 31.7528 31.9264 32.2097 31.5C32.2426 31.4679 32.2871 31.4519 32.3317 31.4519C32.3414 31.4519 32.351 31.4519 32.3627 31.4539L37.0735 32.2266C37.1296 32.2366 37.1761 32.2686 37.2051 32.3187C37.3988 32.665 37.5285 33.0434 37.5943 33.4397C37.6253 33.6159 37.6388 33.802 37.6388 33.9962C37.6388 35.8478 36.1809 37.3552 34.3879 37.3572Z" fill="#030509"/>
<path id="Vector_2" d="M46.9322 27.3946C46.5508 22.9386 44.5759 18.8049 41.3714 15.7562C38.1476 12.6895 33.9654 11 29.5915 11C19.9918 11 12.1811 19.0752 12.1811 29C12.1811 32.331 13.0698 35.5758 14.7524 38.4023L11 46.99L23.0142 45.6668C25.1034 46.5516 27.3145 47 29.5896 47C30.1879 47 30.8017 46.968 31.4174 46.9019C31.9595 46.8419 32.5075 46.7538 33.0457 46.6417C41.0849 44.9622 46.9535 37.5856 47 29.0961V29C47 28.4595 46.9768 27.919 46.9303 27.3966L46.9322 27.3946ZM23.477 41.8975L16.83 42.6301L18.8146 38.0841L18.4176 37.5336C18.3886 37.4935 18.3596 37.4535 18.3266 37.4075C16.6034 34.9473 15.6934 32.0407 15.6934 29.002C15.6934 21.079 21.928 14.6332 29.5915 14.6332C36.771 14.6332 42.8565 20.4244 43.4432 27.8169C43.4742 28.2133 43.4916 28.6117 43.4916 29.004C43.4916 29.1161 43.4896 29.2262 43.4877 29.3443C43.3406 35.9722 38.8621 41.6012 32.5965 43.0345C32.1183 43.1446 31.6284 43.2286 31.1405 43.2827C30.6332 43.3427 30.1124 43.3728 29.5954 43.3728C27.754 43.3728 25.965 43.0044 24.2747 42.2758C24.0869 42.1977 23.9029 42.1136 23.7306 42.0276L23.4789 41.9015L23.477 41.8975Z" fill="#030509"/>
</g>
</g>
</svg>
